<?xml version="1.0" encoding="utf-8"?>
<!-- Generator: Adobe Illustrator 26.1.0, SVG Export Plug-In . SVG Version: 6.00 Build 0)  -->
<svg version="1.1" xmlns="http://www.w3.org/2000/svg" xmlns:xlink="http://www.w3.org/1999/xlink" x="0px" y="0px"
	 viewBox="0 0 500 75" style="enable-background:new 0 0 500 75;" xml:space="preserve">
<style type="text/css">
	.st0{fill:none;stroke:#ECECEC;stroke-width:4;stroke-miterlimit:10;}
	.st1{fill:#F2C5C1;}
	.st2{fill:#5D5C5B;}
	.st3{fill:none;stroke:#CD1719;stroke-miterlimit:10;}
	.st4{fill:#CD1719;}
</style>
<g id="agua">
	<g>
		<g>
			<path class="st0" d="M500,35.26c-22.73,0-22.73-4-45.45-4c-22.73,0-22.73,4-45.45,4c-22.73,0-22.73-4-45.45-4
				c-22.73,0-22.73,4-45.45,4c-22.73,0-22.73-4-45.45-4c-22.73,0-22.73,4-45.45,4c-22.73,0-22.73-4-45.45-4
				c-22.73,0-22.73,4-45.46,4c-22.73,0-22.73-4-45.45-4c-22.73,0-22.73,4-45.46,4c-22.73,0-22.73-4-45.46-4"/>
		</g>
		<g>
			<path class="st0" d="M500,43.45c-22.73,0-22.73-4-45.45-4c-22.73,0-22.73,4-45.45,4c-22.73,0-22.73-4-45.45-4
				c-22.73,0-22.73,4-45.45,4c-22.73,0-22.73-4-45.45-4c-22.73,0-22.73,4-45.45,4c-22.73,0-22.73-4-45.45-4
				c-22.73,0-22.73,4-45.46,4c-22.73,0-22.73-4-45.45-4c-22.73,0-22.73,4-45.46,4c-22.73,0-22.73-4-45.46-4"/>
		</g>
		<g>
			<path class="st0" d="M500,51.64c-22.73,0-22.73-4-45.45-4c-22.73,0-22.73,4-45.45,4c-22.73,0-22.73-4-45.45-4
				c-22.73,0-22.73,4-45.45,4c-22.73,0-22.73-4-45.45-4c-22.73,0-22.73,4-45.45,4c-22.73,0-22.73-4-45.45-4
				c-22.73,0-22.73,4-45.46,4c-22.73,0-22.73-4-45.45-4c-22.73,0-22.73,4-45.46,4c-22.73,0-22.73-4-45.46-4"/>
		</g>
		<g>
			<path class="st0" d="M500,59.83c-22.73,0-22.73-4-45.45-4c-22.73,0-22.73,4-45.45,4c-22.73,0-22.73-4-45.45-4
				c-22.73,0-22.73,4-45.45,4c-22.73,0-22.73-4-45.45-4c-22.73,0-22.73,4-45.45,4c-22.73,0-22.73-4-45.45-4
				c-22.73,0-22.73,4-45.46,4c-22.73,0-22.73-4-45.45-4c-22.73,0-22.73,4-45.46,4c-22.73,0-22.73-4-45.46-4"/>
		</g>
		<g>
			<path class="st0" d="M500,68.02c-22.73,0-22.73-4-45.45-4c-22.73,0-22.73,4-45.45,4c-22.73,0-22.73-4-45.45-4
				c-22.73,0-22.73,4-45.45,4c-22.73,0-22.73-4-45.45-4c-22.73,0-22.73,4-45.45,4c-22.73,0-22.73-4-45.45-4
				c-22.73,0-22.73,4-45.46,4c-22.73,0-22.73-4-45.45-4c-22.73,0-22.73,4-45.46,4c-22.73,0-22.73-4-45.46-4"/>
		</g>
	</g>
</g>
<g id="nadadora-cuatro">
	<path class="st1" d="M458.96,33.42c0,0,2.25-1.22,7.12-1.36c4.87-0.14-2.77-6.41-2.77-6.41l-4.35,0.18V33.42z"/>
	<g>
		<path class="st2" d="M468.66,26.54c5.3-1.42,6.83,3.24,6.85,3.27c0.5-0.59,0.89-1.19,1.09-1.76c1.12-3.26-1.33-7.05-4.75-8.23
			c-3.42-1.17-7.77,0.84-8.89,4.1c-0.21,0.63-0.22,1.25-0.1,1.89C463.3,26.46,464.67,27.61,468.66,26.54z"/>
		<path class="st1" d="M475.5,29.82c-0.01-0.04-1.55-4.69-6.85-3.27c-3.99,1.07-5.36-0.08-5.8-0.72c0.22,1.23,0.91,2.5,1.53,3.92
			c0.74,1.69,0.8,4.1,2.2,5.38c1.02,0.93,3.19-1.32,5.52-0.8c0.81,0.18-0.03-1.25,0.63-1.83C473.73,31.63,474.74,30.72,475.5,29.82z
			"/>
	</g>
	<g>
		<path class="st1" d="M499.82,28.46c-5.33-3.95-10.83-1.51-10.83-1.51c-4.72,0.21-8.59,0.36-11.85,0.43
			c-0.05,0.27-0.11,0.54-0.2,0.81c-0.19,0.57-0.57,1.18-1.15,1.88c-0.54,0.64-1.19,1.27-1.84,1.87c7.58-0.74,14.5-2.58,14.5-2.58
			l5.43,1.68c0.45,0.14,0.98-0.43,0.63-0.76c-0.25-0.23-1.29-0.59-0.54-1.24C495.02,28.11,501.12,29.42,499.82,28.46z"/>
	</g>
	<path class="st2" d="M423.85,29.54c-0.45-2.06,0.69-5.07,5.1-6.71c4.42-1.64,14.51,4.58,19.02,2.91s12.08-3.65,13.21-0.58
		c1.13,3.07,3.14,9.31-3.45,11.74c-10.91,4.04-13.69-5.4-21.35-2.57S424.58,32.82,423.85,29.54z"/>
	<path class="st1" d="M396.6,28.63c0,2.62,1.97,1.59,6.4,1.36c4.43-0.23,7.01,3.54,9.47,2.23c1.84-0.98,8.94-6.8,15.17-6.89
		c5.27-0.07,8.25,8.31-0.21,11.01c0,0-9.72,1.29-14.84,1.58c-5.12,0.29-14.77-2.17-18.81-5.2c-1.2-0.9-4.18-0.58-6.14-1.3
		c-2.88-1.07-4.46-0.21-5.75-2.64c-1.43-2.69,5.79,0.23,8.33-1.12C392.76,26.29,396.6,25.61,396.6,28.63z"/>
	<path class="st1" d="M398.46,35.56c-1.3,0.93-2.25,1.49-2.48,0.63c-0.8-3.02-4.64-2.2-6.23,0.21c-1.59,2.41-9.32,3.3-6.78,4.97
		c2.3,1.52,3.36-1.24,6.31-0.43c1.83,0.5,5.32-0.65,6.81-0.7c4.67-0.14,7.58-1.19,12.13-2.2C405.12,37.63,401.52,36.75,398.46,35.56
		z"/>
	<path class="st1" d="M437.94,28.09c0,0-6.79-1.28-7.66-7.85c-0.21-1.6,3.09,3.69,4.48,3.81c0.99,0.09,0.52-0.91,0.51-1.25
		c0-0.48,0.77-0.5,0.99-0.07l2.88,1.37c0,0,11.92-13.59,20.06,2.17c3.02,5.84-2.16,8.06-3.92,5.67c-2.53-3.45-3.25-4.79-4.1-8.05
		C450.14,19.82,441.79,27.71,437.94,28.09z"/>
	<g>
		<g>
			<line class="st3" x1="447.73" y1="43.07" x2="490.04" y2="43.07"/>
			<g>
				<polygon class="st4" points="487.39,46.34 486.85,45.76 489.74,43.07 486.85,40.39 487.39,39.8 490.91,43.07 				"/>
			</g>
		</g>
	</g>
</g>
<g id="nadadora-tres">
	<g>
		<g>
			<path class="st1" d="M335.05,35.72c0,0,1.04-2.34,4.81-5.42s-6.11-3.39-6.11-3.39l-1.26,4.84L335.05,35.72z"/>
			<g>
				<path class="st2" d="M338.54,24.36c3.33-4.36,7.39-1.6,7.42-1.58c0.03-0.78-0.02-1.48-0.21-2.06c-1.1-3.26-5.35-4.78-8.78-3.62
					c-3.43,1.16-5.64,5.41-4.54,8.67c0.21,0.63,0.59,1.12,1.07,1.56C334.25,27.56,336.04,27.63,338.54,24.36z"/>
				<path class="st1" d="M345.96,22.77c-0.03-0.02-4.09-2.78-7.42,1.58c-2.51,3.28-4.3,3.21-5.03,2.97c0.93,0.83,2.24,1.42,3.6,2.17
					c1.61,0.89,3.14,2.76,5.03,2.92c1.37,0.11,1.73-2.99,3.89-4c0.75-0.35-0.79-0.97-0.62-1.83
					C345.67,25.29,345.91,23.95,345.96,22.77z"/>
			</g>
			<path class="st1" d="M374.2,28.46c-4.7-4.68-10.32-4.36-10.32-4.36c-4.29,0.19-11.3,0.83-17.74,0.55
				c-0.1,0.69-0.23,1.37-0.36,2.01c-0.05,0.23,0.2,0.51,0.41,0.75c0.23,0.27,0.48,0.54,0.41,0.88c-0.04,0.2-0.18,0.35-0.41,0.46
				c-0.68,0.31-1.16,0.87-1.57,1.46c9.59,0.06,18.19-2.53,18.19-2.53l5.13,2.45c0.43,0.21,1.03-0.28,0.74-0.66
				c-0.21-0.27-1.19-0.77-0.36-1.31C369.49,27.42,375.34,29.6,374.2,28.46z"/>
			<path class="st2" d="M298.29,40.76c-0.91-1.9-0.49-5.09,3.44-7.7c3.93-2.6,15.17,1.14,19.18-1.52s10.92-6.32,12.73-3.59
				c1.81,2.73,5.18,8.34-0.67,12.22c-9.7,6.43-14.56-2.13-21.37,2.38C304.78,47.07,299.75,43.78,298.29,40.76z"/>
			<path class="st1" d="M340.31,63.66c0,0,1.91,5.7-2.51,10.64c-1.08,1.2,0.79-4.75-0.02-5.89c-0.58-0.8-1.03,0.2-1.29,0.43
				c-0.36,0.31-0.88-0.26-0.7-0.7l2.18-5.25c0,0-9.98-12.25-9.34-24.86c0.33-6.56,6.98-5.23,6.41-2.31
				C333.4,44.21,336.26,47.2,340.31,63.66z"/>
			<path class="st1" d="M261.21,34.36c-0.04,2.62,9.02,3.45,13.33,4.47c4.66,1.11,7.21,5.55,9.67,4.24
				c1.84-0.98,11.44-9.23,17.67-9.32c5.27-0.07,8.25,8.31-0.21,11.01c0,0-13.82,4.94-18.93,5.22c-5.12,0.29-17.74-10.15-22.66-11.32
				c-1.46-0.34-4.82-0.15-6.6-0.82c-2.87-1.07-4.17,1.58-6.33-0.13c-2.38-1.89,5.4-2.09,7.19-4.35
				C256.15,31.11,261.3,28.74,261.21,34.36z"/>
			<path class="st1" d="M254.2,32.98c1.21-1.4,3.78-2.96,5.6-2.31c0.84,0.3,1.83,1.19,1.79,3.7c-0.03,1.69,5.64,2.71,9.39,3.39
				c1.36,0.24,2.64,0.47,3.66,0.72c0.98,0.23,1.87,0.61,2.69,1.05c-0.89-1.09-1.75-2.19-2.29-2.87c-2.76-3.47-12.63-2.05-11.88-4.56
				c1.63-5.38-3.98-4.52-6.32-2.84c-2.35,1.68-9.88-0.26-8.11,2.21C250.2,33.53,251.99,31.83,254.2,32.98z"/>
		</g>
		<g>
			<g>
				<path class="st3" d="M325.8,55.03c-14.11-1.69-24.25-14.27-23.03-28.32"/>
				<g>
					<polygon class="st4" points="305.91,29.56 305.29,30.07 302.79,27.02 299.93,29.74 299.38,29.16 302.86,25.85 					"/>
				</g>
			</g>
		</g>
		<g>
			<g>
				<path class="st3" d="M362,30.52c-1.69,14.11-14.27,24.25-28.32,23.03"/>
				<g>
					<polygon class="st4" points="336.53,50.41 337.04,51.03 333.99,53.53 336.71,56.39 336.13,56.94 332.82,53.46 					"/>
				</g>
			</g>
		</g>
	</g>
</g>
<g id="nadadora-dos">
	<g>
		<g>
			<path class="st3" d="M197.41,10.6c10.78-9.26,26.91-8.24,36.44,2.15"/>
			<g>
				<polygon class="st4" points="229.63,13.15 229.67,12.35 233.61,12.56 233.53,8.62 234.34,8.6 234.43,13.41 				"/>
			</g>
		</g>
	</g>
	<g>
		<g>
			<path class="st3" d="M217.87,52.11c-10.78,9.26-26.91,8.24-36.44-2.15"/>
			<g>
				<polygon class="st4" points="185.65,49.57 185.61,50.37 181.67,50.16 181.75,54.1 180.95,54.11 180.85,49.31 				"/>
			</g>
		</g>
	</g>
	<path class="st1" d="M208.29,38.03c0,0,0.44-3.09,5.11-4.51s-4.36-5.46-4.36-5.46l-3,4L208.29,38.03z"/>
	<g>
		<path class="st2" d="M214.43,27.52c4.74-2.76,7.45,1.32,7.47,1.36c0.32-0.71,0.55-1.38,0.59-1.98c0.22-3.44-3.14-6.45-6.75-6.69
			c-3.61-0.23-7.27,2.86-7.49,6.3c-0.04,0.66,0.12,1.26,0.4,1.85C209.24,28.85,210.87,29.6,214.43,27.52z"/>
		<path class="st1" d="M221.9,28.87c-0.02-0.03-2.73-4.12-7.47-1.36c-3.57,2.08-5.19,1.34-5.78,0.83c0.54,1.12,1.54,2.17,2.51,3.38
			c1.15,1.44,1.85,3.75,3.54,4.61c1.23,0.63,2.73-2.11,5.12-2.22c0.83-0.04-0.36-1.2,0.12-1.93
			C220.67,31.09,221.4,29.95,221.9,28.87z"/>
	</g>
	<path class="st2" d="M172.4,35.08c-0.55-2.03,0.44-5.1,4.78-6.94c4.34-1.84,14.71,3.88,19.13,1.99c4.42-1.88,11.89-4.22,13.17-1.22
		c1.28,3.01,3.58,9.15-2.88,11.9c-10.71,4.56-13.93-4.74-21.45-1.54C177.63,42.46,173.27,38.31,172.4,35.08z"/>
	<path class="st1" d="M186.1,28.6c8.07-7.99,6.45-5.61,10.15,1.15c1.32-0.56,3.91-1.58,6.5-2.18c-9.27-12.44-9.89-13.46-21.16,0.02
		C182.99,27.81,184.52,28.19,186.1,28.6z"/>
	<path class="st1" d="M232.51,45.35c0,0,5.18,2.2,7.32,8.47c0.52,1.53-3.76-3.01-5.15-2.85c-0.98,0.11-0.33,1-0.26,1.33
		c0.1,0.47-0.66,0.64-0.95,0.27l-3.52-4.47c0,0-15.18-3.28-24.9-9.92c-5.43-3.71-0.44-8.2,1.99-6.02
		C212.96,37.42,226.73,42.8,232.51,45.35z"/>
	<path class="st1" d="M138.62,44.36c1.66,2.03,6.43-4.33,10.85-4.69c4.42-0.37,7.72,0.35,10.14-1.03c1.81-1.04,9.77-8.22,15.99-8.5
		c5.26-0.23,8.5,8.06,0.12,11.01c0,0-10.71,3.69-15.82,4.14s-14.85,0.8-19.36,3.09c-1.33,0.68-3.78,3-5.56,3.64
		c-2.89,1.04-2.16,3.9-4.92,3.99c-3.04,0.09,2.77-5.09,2.68-7.97C132.65,45.15,135.06,40.01,138.62,44.36z"/>
	<path class="st1" d="M134.66,29.48c1.19,1.49,4.17,3.04,5.25,4.09c2.49,2.42,5.29,3.99,7.47,6.26c0.68-0.28,1.37-0.48,2.06-0.54
		c1.52-0.13,2.92-0.12,4.16-0.12c0.93,0,1.78,0,2.56-0.05c-0.84-0.67-1.65-1.62-2.48-3.53c-1.77-4.06-11.99-2.91-10.6-5.14
		c2.96-4.78-2.68-5.39-5.38-4.38c-2.7,1.01-9.48-2.81-8.41,0.04C130.26,28.7,132.74,27.09,134.66,29.48z"/>
</g>
<g id="nadadora-uno">
	<g>
		<g>
			<path class="st3" d="M99.38,38.79c-2.09,14.05-14.96,23.84-28.97,22.22"/>
			<g>
				<polygon class="st4" points="73.35,57.95 73.84,58.58 70.72,61 73.36,63.93 72.76,64.47 69.55,60.9 				"/>
			</g>
		</g>
	</g>
	<g>
		<path class="st1" d="M78.77,27.23c3.28,1.4,6.7,1.95,12.43,2.02c-0.76-0.84-1.94-1.54-3.79-1.76c-1.85-0.21-3.04-0.65-3.8-1.14
			c-0.45-0.96-0.84-1.66-0.84-1.66l-0.45,0.13c-0.01-0.05-0.03-0.09-0.04-0.13c-0.01,0.05-0.01,0.1-0.02,0.15l-4.3,1.26l-0.24,0.84
			C78.06,26.98,78.41,27.07,78.77,27.23z"/>
		<path class="st1" d="M86.59,34.84c-1.49,0-2.93-0.08-4.31-0.25c0.02,0.04,0.03,0.09,0.05,0.13c0.61,1.24,3.45-0.05,5.43,1.29
			c0.57,0.39,0.49-0.67,0.92-1.22C87.99,34.82,87.29,34.84,86.59,34.84z"/>
	</g>
	<path class="st2" d="M87.41,27.5c1.85,0.21,3.02,0.92,3.79,1.76c1.28,0.02,2.67,0.01,4.21-0.02c0.4-2.38-0.6-5.12-2.57-6.8
		c-2.75-2.35-7.53-2.07-9.77,0.55c-0.43,0.5-0.66,1.08-0.79,1.72C82.46,25.45,83.31,27.03,87.41,27.5z"/>
	<path class="st2" d="M42.16,31.78c-0.45-2.06,0.69-5.07,5.1-6.71s14.51,4.58,19.02,2.91s12.08-3.65,13.21-0.58
		s3.14,9.31-3.45,11.74c-10.91,4.04-13.69-5.4-21.35-2.57S42.88,35.05,42.16,31.78z"/>
	<path class="st1" d="M56.79,26.16c1.16,0.36,2.33,0.73,3.45,1.03c3.23-0.74,5.11-0.46,6.53,0.21c2.47-0.87,8.19-2.66,11.23-1.7
		l0.4-0.12c-0.5-0.3-1.09-0.58-1.77-0.85c-13.71-5.34-19.83-1.47-22.01,0.76C55.34,25.71,56.06,25.93,56.79,26.16z"/>
	<path class="st1" d="M107.29,29.18c0,0,5.5-2.44,10.83,1.51c1.3,0.96-4.8-0.35-5.86,0.57c-0.75,0.65,0.3,1.01,0.54,1.24
		c0.35,0.33-0.18,0.9-0.63,0.76l-5.43-1.68c0,0-17.47,4.66-27.32,2.13c-5.74-1.47-4.81-7.84-0.8-6.13
		C84.35,30.01,90.38,29.92,107.29,29.18z"/>
	<path class="st1" d="M14.9,30.87c0,2.62,1.97,1.59,6.4,1.36c4.43-0.23,7.01,3.54,9.47,2.23c1.84-0.98,8.94-6.8,15.17-6.89
		c5.27-0.07,8.25,8.31-0.21,11.01c0,0-9.72,1.29-14.84,1.58c-5.12,0.29-14.77-2.17-18.81-5.2c-1.2-0.9-4.18-0.58-6.14-1.3
		c-2.88-1.07-4.46-0.21-5.75-2.64c-1.43-2.69,5.79,0.23,8.33-1.12C11.06,28.53,14.9,27.85,14.9,30.87z"/>
	<path class="st1" d="M16.77,37.8c-1.3,0.93-2.25,1.49-2.48,0.63c-0.8-3.02-4.64-2.2-6.23,0.21c-1.59,2.41-9.32,3.3-6.78,4.97
		c2.3,1.52,3.36-1.24,6.31-0.43c1.83,0.5,5.32-0.65,6.81-0.7c4.67-0.14,7.58-1.19,12.13-2.2C23.42,39.87,19.83,38.98,16.77,37.8z"/>
</g>
</svg>
