<?xml version="1.0" encoding="utf-8"?>
<!-- Generator: Adobe Illustrator 26.1.0, SVG Export Plug-In . SVG Version: 6.00 Build 0)  -->
<svg version="1.1" xmlns="http://www.w3.org/2000/svg" xmlns:xlink="http://www.w3.org/1999/xlink" x="0px" y="0px"
	 viewBox="0 0 500 85" style="enable-background:new 0 0 500 85;" xml:space="preserve">
<style type="text/css">
	.st0{fill:none;stroke:#ECECEC;stroke-width:4;stroke-miterlimit:10;}
	.st1{fill:#F2C5C1;}
	.st2{fill:#5D5C5B;}
	.st3{fill:none;stroke:#CD1719;stroke-miterlimit:10;}
	.st4{fill:#CD1719;}
</style>
<g id="agua">
	<g>
		<g>
			<path class="st0" d="M500,45.26c-22.73,0-22.73-4-45.45-4c-22.73,0-22.73,4-45.45,4c-22.73,0-22.73-4-45.45-4
				c-22.73,0-22.73,4-45.45,4c-22.73,0-22.73-4-45.45-4c-22.73,0-22.73,4-45.45,4c-22.73,0-22.73-4-45.45-4
				c-22.73,0-22.73,4-45.46,4c-22.73,0-22.73-4-45.45-4c-22.73,0-22.73,4-45.46,4c-22.73,0-22.73-4-45.46-4"/>
		</g>
		<g>
			<path class="st0" d="M500,53.45c-22.73,0-22.73-4-45.45-4c-22.73,0-22.73,4-45.45,4c-22.73,0-22.73-4-45.45-4
				c-22.73,0-22.73,4-45.45,4c-22.73,0-22.73-4-45.45-4c-22.73,0-22.73,4-45.45,4c-22.73,0-22.73-4-45.45-4
				c-22.73,0-22.73,4-45.46,4c-22.73,0-22.73-4-45.45-4c-22.73,0-22.73,4-45.46,4c-22.73,0-22.73-4-45.46-4"/>
		</g>
		<g>
			<path class="st0" d="M500,61.64c-22.73,0-22.73-4-45.45-4c-22.73,0-22.73,4-45.45,4c-22.73,0-22.73-4-45.45-4
				c-22.73,0-22.73,4-45.45,4c-22.73,0-22.73-4-45.45-4c-22.73,0-22.73,4-45.45,4c-22.73,0-22.73-4-45.45-4
				c-22.73,0-22.73,4-45.46,4c-22.73,0-22.73-4-45.45-4c-22.73,0-22.73,4-45.46,4c-22.73,0-22.73-4-45.46-4"/>
		</g>
		<g>
			<path class="st0" d="M500,69.83c-22.73,0-22.73-4-45.45-4c-22.73,0-22.73,4-45.45,4c-22.73,0-22.73-4-45.45-4
				c-22.73,0-22.73,4-45.45,4c-22.73,0-22.73-4-45.45-4c-22.73,0-22.73,4-45.45,4c-22.73,0-22.73-4-45.45-4
				c-22.73,0-22.73,4-45.46,4c-22.73,0-22.73-4-45.45-4c-22.73,0-22.73,4-45.46,4s-22.73-4-45.46-4"/>
		</g>
		<g>
			<path class="st0" d="M500,78.02c-22.73,0-22.73-4-45.45-4c-22.73,0-22.73,4-45.45,4c-22.73,0-22.73-4-45.45-4
				c-22.73,0-22.73,4-45.45,4c-22.73,0-22.73-4-45.45-4c-22.73,0-22.73,4-45.45,4c-22.73,0-22.73-4-45.45-4
				c-22.73,0-22.73,4-45.46,4c-22.73,0-22.73-4-45.45-4c-22.73,0-22.73,4-45.46,4c-22.73,0-22.73-4-45.46-4"/>
		</g>
	</g>
</g>
<g id="nadadora-cuatro">
	<path class="st1" d="M460.63,44.05c0,0,2.92,1.1,6.42-2.3c3.5-3.4,2.68,6.46,2.68,6.46l-9.53,1.34L460.63,44.05z"/>
	<g>
		<path class="st2" d="M472.81,43.75c4.71-2.82,2.43-7.17,2.42-7.2c0.77,0.06,1.47,0.19,2.02,0.44c3.12,1.47,4.14,5.87,2.6,9.14
			c-1.54,3.27-6.02,4.99-9.14,3.53c-0.6-0.28-1.05-0.72-1.43-1.24C469.13,47.65,469.26,45.87,472.81,43.75z"/>
		<path class="st1" d="M475.22,36.55c0.02,0.03,2.3,4.38-2.42,7.2c-3.54,2.12-3.68,3.91-3.52,4.67c-0.72-1.01-1.16-2.39-1.75-3.83
			c-0.7-1.7-2.39-3.43-2.33-5.33c0.04-1.38,3.17-1.38,4.42-3.41c0.43-0.71,0.88,0.89,1.75,0.82
			C472.68,36.55,474.05,36.46,475.22,36.55z"/>
	</g>
	<path class="st2" d="M428.62,49.48c-0.35,2.08,0.93,5.04,5.43,6.45c4.5,1.42,14.28-5.29,18.87-3.84
		c4.59,1.45,12.25,3.06,13.24-0.06s2.68-9.46-4.02-11.57c-11.1-3.5-13.42,6.07-21.22,3.61C433.12,41.61,429.18,46.17,428.62,49.48z"
		/>
	<g>
		<path class="st1" d="M465.8,42.24c-0.53-0.93-1-1.92-0.97-2.99c0.03-0.91,0.95-1.32,1.92-1.76c0.34-0.16,0.7-0.32,1.05-0.51
			c-0.74,0.32-1.47,0.65-2.21,0.99c0,0-1.92,1.34-3.2,2.2C463.82,40.63,464.97,41.32,465.8,42.24z"/>
		<path class="st1" d="M494.82,26.78c-0.98-0.1-0.33-1-0.26-1.33c0.1-0.47-0.66-0.64-0.96-0.26l-3.49,4.49c0,0-9.2,1.97-19.48,6.1
			c0,0,0,0,0.01,0.01c0.22,0.24,0.47,0.51,0.7,0.5c1.24-0.1,2.67-0.2,3.91-0.11c0.9,0.06,1.61,0.22,2.15,0.48
			c0.22,0.1,0.42,0.22,0.62,0.35c3.68-1.47,8.92-2.71,13.91-5.66c0,0,5.91-1.15,8.02-7.45C500.47,22.36,496.22,26.93,494.82,26.78z"
			/>
	</g>
	<path class="st1" d="M393.6,47.91c0.27-2.61,8.7,1.73,13.07,0.94c4.37-0.79,5.26,0.25,7.96,0.97c2.02,0.54,11.57,5.43,17.66,4.08
		c5.15-1.14,6.13-9.99-2.73-10.67c0,0-12.6-1.63-17.66-0.74c-5.05,0.89-13.89,0.44-18.91,1.01c-1.49,0.17-4.81-0.42-6.66,0.03
		c-2.98,0.73-3.96-2.06-6.3-0.62c-2.59,1.6,5.12,2.72,6.63,5.18C388.19,50.54,393.02,53.51,393.6,47.91z"/>
	<path class="st1" d="M416.71,51c-0.99-0.4-1.76-0.71-2.17-0.82c-0.66-0.17-1.2-0.36-1.72-0.55c-1.59-0.56-2.85-1-6.07-0.41
		c-0.91,0.16-1.97,0.11-3.09-0.05c-3.47,0.74-6.99,1.51-8.85,2.1c-1.43,0.45-4.8,0.51-6.53,1.31c-2.79,1.29-4.28-1.27-6.3,0.61
		c-2.23,2.07,5.54,1.69,7.5,3.81c1.96,2.12,7.28,4.1,6.77-1.51c-0.24-2.61,8.87,0.03,13.01-1.59c1.77-0.69,6.3-1.7,9.26-2.18
		C417.86,51.46,417.25,51.22,416.71,51z"/>
	<path class="st1" d="M437.78,65.4c0,0-6.02-0.04-9.33,5.71c-0.81,1.4,4.27-2.24,5.6-1.82c0.94,0.3,0.13,1.04,0,1.36
		c-0.19,0.44,0.52,0.76,0.89,0.44l4.31-3.71c0,0,5.71,1.78,21.78-10.79c5.36-4.2,8.02-6.97,5-9.17
		C461.01,43.74,457.22,58.63,437.78,65.4z"/>
	<g>
		<g>
			<path class="st3" d="M442.8,60.29c-5.46-13.15,0.55-28.19,13.42-34.03"/>
			<g>
				<polygon class="st4" points="455.27,30.4 454.52,30.11 455.95,26.43 452.18,25.28 452.42,24.51 457.01,25.92 				"/>
			</g>
		</g>
	</g>
	<g>
		<g>
			<path class="st3" d="M491.42,36.95c5.46,13.15-0.55,28.19-13.42,34.03"/>
			<g>
				<polygon class="st4" points="478.94,66.84 479.69,67.13 478.26,70.81 482.03,71.96 481.8,72.73 477.2,71.32 				"/>
			</g>
		</g>
	</g>
</g>
<g id="nadadora-tres">
	<path class="st1" d="M342.74,46.13c0,0,2.92,1.1,6.42-2.3c3.5-3.4,2.68,6.46,2.68,6.46l-9.53,1.34L342.74,46.13z"/>
	<g>
		<path class="st2" d="M354.92,45.82c4.71-2.82,2.43-7.17,2.42-7.2c0.77,0.06,1.47,0.19,2.02,0.44c3.12,1.47,4.14,5.87,2.6,9.14
			c-1.54,3.27-6.02,4.99-9.14,3.53c-0.6-0.28-1.05-0.72-1.43-1.24C351.24,49.73,351.37,47.94,354.92,45.82z"/>
		<path class="st1" d="M357.33,38.62c0.02,0.03,2.3,4.38-2.42,7.2c-3.54,2.12-3.68,3.91-3.52,4.67c-0.72-1.01-1.16-2.39-1.75-3.83
			c-0.7-1.7-2.39-3.43-2.33-5.33c0.04-1.38,3.17-1.38,4.42-3.41c0.43-0.71,0.88,0.89,1.75,0.82
			C354.79,38.63,356.16,38.54,357.33,38.62z"/>
	</g>
	<path class="st2" d="M306.29,49.48c-0.35,2.08,0.93,5.04,5.43,6.45c4.5,1.42,14.28-5.29,18.87-3.84
		c4.59,1.45,12.25,3.06,13.24-0.06s2.68-9.46-4.02-11.57c-11.1-3.5-13.42,6.07-21.22,3.61S306.86,46.17,306.29,49.48z"/>
	<path class="st1" d="M345.07,45.8c0.97-0.21,1.94-0.68,2.89-1.41c-0.55-0.95-1.04-1.96-1.01-3.07c0.03-0.91,0.95-1.32,1.92-1.76
		c0.13-0.06,0.26-0.12,0.4-0.18c0.19-1.15,0.88-2.9,2.66-6.13c1.97-3.58,6.88-7.87,10.15-14.11c0,0,4.42-4.09,2.9-10.55
		c-0.37-1.58-1.58,4.55-2.85,5.16c-0.89,0.43-0.81-0.67-0.92-0.99c-0.16-0.45-0.9-0.19-0.95,0.28l-0.6,5.66
		c0,0-9.16,8.78-16.5,19.94c0,0-0.68,1.37-1.18,2.39C343.75,42.08,344.79,43.69,345.07,45.8z"/>
	<path class="st1" d="M271.28,47.91c0.27-2.61,8.7,1.73,13.07,0.94c4.37-0.79,5.26,0.25,7.96,0.97c2.02,0.54,11.57,5.43,17.66,4.08
		c5.15-1.14,6.13-9.99-2.73-10.67c0,0-12.6-1.63-17.66-0.74c-5.05,0.89-13.89,0.44-18.91,1.01c-1.49,0.17-4.81-0.42-6.66,0.03
		c-2.98,0.73-3.96-2.06-6.3-0.62c-2.59,1.6,5.12,2.72,6.63,5.18S270.7,53.51,271.28,47.91z"/>
	<path class="st1" d="M294.38,51c-0.99-0.4-1.76-0.71-2.17-0.82c-0.66-0.17-1.2-0.36-1.72-0.55c-1.59-0.56-2.85-1-6.07-0.41
		c-0.91,0.16-1.97,0.11-3.09-0.05c-3.47,0.74-6.99,1.51-8.85,2.1c-1.43,0.45-4.8,0.51-6.53,1.31c-2.79,1.29-4.28-1.27-6.3,0.61
		c-2.23,2.07,5.54,1.69,7.5,3.81c1.96,2.12,7.28,4.1,6.77-1.51c-0.24-2.61,8.87,0.03,13.01-1.59c1.77-0.69,6.3-1.7,9.26-2.18
		C295.53,51.46,294.92,51.22,294.38,51z"/>
	<path class="st1" d="M321.26,59.67c0,0-5.95,0.89-10.05-4.33c-1-1.27,4.54,1.61,5.8,1c0.89-0.43-0.02-1.05-0.2-1.34
		c-0.25-0.41,0.41-0.82,0.81-0.57c0,0,4.04,2.25,4.79,3.06c9.25,0.6,10.57,1.63,18.37-8.72c3.96-5.25,10.77-1.47,6.31,3.56
		C342.98,57,333.81,65.81,321.26,59.67z"/>
	<g>
		<g>
			<path class="st3" d="M331.55,24.19c11.44-8.48,27.48-6.29,36.26,4.78"/>
			<g>
				<polygon class="st4" points="363.57,29.06 363.67,28.26 367.59,28.76 367.8,24.82 368.59,24.86 368.34,29.66 				"/>
			</g>
		</g>
	</g>
</g>
<g id="nadadora-dos">
	<g>
		<g>
			<path class="st3" d="M214.53,7.66c13.66-4,27.97,3.59,32.38,17.01"/>
			<g>
				<polygon class="st4" points="242.9,23.29 243.27,22.58 246.77,24.4 248.33,20.77 249.06,21.09 247.16,25.5 				"/>
			</g>
		</g>
	</g>
	<g>
		<g>
			<path class="st3" d="M223.89,66.92c-10.31,9.82-26.5,9.62-36.57-0.29"/>
			<g>
				<polygon class="st4" points="191.51,66.02 191.51,66.82 187.56,66.81 187.84,70.75 187.04,70.8 186.71,66.01 				"/>
			</g>
		</g>
	</g>
	<path class="st1" d="M223.82,42.98c0,0,2.92,1.1,6.42-2.3c3.5-3.4,2.68,6.46,2.68,6.46l-4.96,0.7L223.82,42.98z"/>
	<g>
		<path class="st2" d="M236,42.68c4.71-2.82,2.43-7.17,2.42-7.2c0.77,0.06,1.47,0.19,2.02,0.44c3.12,1.47,4.14,5.87,2.6,9.14
			s-6.02,4.99-9.14,3.53c-0.6-0.28-1.05-0.72-1.43-1.24C232.32,46.58,232.45,44.8,236,42.68z"/>
		<path class="st1" d="M238.41,35.48c0.02,0.03,2.3,4.38-2.42,7.2c-3.54,2.12-3.68,3.91-3.52,4.67c-0.72-1.01-1.16-2.39-1.75-3.83
			c-0.7-1.7-2.39-3.43-2.33-5.33c0.04-1.38,3.17-1.38,4.42-3.41c0.43-0.71,0.88,0.89,1.75,0.82
			C235.88,35.48,237.24,35.39,238.41,35.48z"/>
	</g>
	<path class="st2" d="M190.61,49.48c-0.35,2.08,0.93,5.04,5.43,6.45c4.5,1.42,14.28-5.29,18.87-3.84
		c4.59,1.45,12.25,3.06,13.24-0.06s2.68-9.46-4.02-11.57c-11.1-3.5-13.42,6.07-21.22,3.61C195.11,41.61,191.18,46.17,190.61,49.48z"
		/>
	<path class="st1" d="M156.75,54.6c0.18-1.91,8.22,0.55,13.18-2.95c3.62-2.56,6.27-2.19,8.97-1.47c2.02,0.54,11.57,5.43,17.66,4.08
		c5.15-1.14,6.13-9.99-2.72-10.67c0,0-12.6-1.63-17.66-0.74c-5.05,0.89-16.85,5.71-20.81,8.86c-1.17,0.93-5.78,1.67-7.1,3.04
		c-2.14,2.2-4.45,0.35-5.67,2.82c-1.35,2.73,5.78-0.41,8.37,0.87C153.55,59.7,156.28,59.59,156.75,54.6z"/>
	<g>
		<path class="st1" d="M221.03,39.13c-8.07-10.63-11.32-24.15-11.32-24.15l-5.13-2.45c-0.43-0.21-0.43-0.98,0.05-0.99
			c0.34,0,1.35,0.44,1.24-0.54c-0.15-1.39-5.52-4.58-3.92-4.4c6.6,0.72,8.98,6.25,8.98,6.25c4.8,5.16,6.41,11.86,9.12,14.91
			c4.09,4.58,5.5,7.05,8.5,8.98c0,0,0.16,0.1,0.22,0.14c-0.69,0.54-1.49,1.61-0.37,3.42l0.68,0.9l-1.33,0.88
			c-1.8-1.77-4.5-2.67-6.6-2.79C221.13,39.26,221.03,39.13,221.03,39.13z"/>
	</g>
	<path class="st1" d="M150.05,47.87c1.91,2.17,4.17,2.23,5.13-0.19c0.54-1.37,3.04-0.8,6.17-0.03c4.89-2.28,10.77-4.41,13.96-4.97
		c0.45-0.08,0.97-0.14,1.53-0.18c-0.08-0.03-0.17-0.06-0.27-0.08c-0.06-0.02-17.86-1.05-21.06-0.13c-1.44,0.42-5.44,0.3-7.18,1.06
		c-2.82,1.22-3.62-1.28-5.69,0.54C140.36,45.9,148.14,45.7,150.05,47.87z"/>
	<g>
		<path class="st1" d="M232.89,53.78c-0.01-0.01-0.01-0.03-0.02-0.04c0,0.01-0.06,0.03-0.11,0.09c-0.05,0.05-0.07,0.11-0.06,0.16
			l0.01,0.07c0.05-0.07,0.09-0.14,0.14-0.21C232.86,53.83,232.87,53.81,232.89,53.78z"/>
		<path class="st1" d="M234.82,58.83c-0.02-0.04-0.04-0.08-0.05-0.12l-4.55,1.23l-1.74,2.49c-0.07,0.1-0.19,0.16-0.31,0.16
			c-0.07,0-0.15-0.02-0.21-0.07c-0.17-0.12-0.21-0.35-0.09-0.52l2.73-3.91c0.28-0.79,0.75-1.82,1.51-3.08l-0.14-0.91
			c-0.07-0.48,0.26-0.89,0.62-1.03c0.25-0.1,0.5-0.07,0.69,0.05c2.69-5.15-3.17-9.55-6.07-3.82c-2.81,5.55-2.93,16.1,1.19,17.59
			c1.81,0.66,5.7-6.35,6.56-7.95C234.9,58.92,234.85,58.89,234.82,58.83z"/>
	</g>
	<path class="st1" d="M235.12,58.62c0,0,3.84-2.64,0.72-8.5c-0.76-1.43-0.46,3.22-1.52,4.13c-0.75,0.64-0.95-0.44-1.15-0.72
		c-0.27-0.39-0.92,0.04-0.85,0.52l0.28,1.82l-5.3,7.59h0.86L235.12,58.62z"/>
</g>
<g id="nadadora-uno">
	<g>
		<g>
			<g>
				<path class="st3" d="M112.27,47.92C110.18,62,97.29,71.8,83.25,70.17"/>
				<g>
					<polygon class="st4" points="86.18,67.12 86.68,67.75 83.56,70.16 86.2,73.1 85.6,73.63 82.39,70.06 					"/>
				</g>
			</g>
		</g>
		<g>
			<g>
				<path class="st3" d="M67.45,28.72C69.54,14.64,82.43,4.84,96.47,6.46"/>
				<g>
					<polygon class="st4" points="93.53,9.52 93.04,8.89 96.16,6.47 93.52,3.54 94.12,3 97.33,6.58 					"/>
				</g>
			</g>
		</g>
		<g>
			<path class="st1" d="M56.43,30.68c0,0-5.42-2.61-10.88,1.17c-1.33,0.92,4.81-0.19,5.84,0.76c0.73,0.67-0.33,1-0.58,1.22
				c-0.36,0.32,0.15,0.91,0.61,0.78l5.49-1.51c0,0,20.78,2.63,29.3,11.78c4.48,4.81,6.3-1.98,0.99-6.11
				C82.28,34.95,76.89,32.88,56.43,30.68z"/>
			<path class="st1" d="M86.86,40.15c0,0,2.92,1.1,6.42-2.3c3.5-3.4,2.68,6.46,2.68,6.46L91,45.01L86.86,40.15z"/>
			<g>
				<path class="st2" d="M99.04,39.84c4.71-2.82,2.43-7.17,2.42-7.2c0.77,0.06,1.47,0.19,2.02,0.44c3.12,1.47,4.14,5.87,2.6,9.14
					c-1.54,3.27-6.02,4.99-9.14,3.53c-0.6-0.28-1.05-0.72-1.43-1.24C95.36,43.75,95.5,41.96,99.04,39.84z"/>
				<path class="st1" d="M101.46,32.64c0.02,0.03,2.3,4.38-2.42,7.2c-3.54,2.12-3.68,3.91-3.52,4.67c-0.72-1.01-1.16-2.39-1.75-3.83
					c-0.7-1.7-2.39-3.43-2.33-5.33c0.04-1.38,3.17-1.38,4.42-3.41c0.43-0.71,0.88,0.89,1.75,0.82
					C98.92,32.65,100.28,32.56,101.46,32.64z"/>
			</g>
			<path class="st2" d="M53.66,46.64c-0.35,2.08,0.93,5.04,5.43,6.45c4.5,1.42,14.28-5.29,18.87-3.84
				c4.59,1.45,12.25,3.06,13.24-0.06s2.68-9.46-4.02-11.57c-11.1-3.5-13.42,6.07-21.22,3.61S54.22,43.33,53.66,46.64z"/>
			<path class="st1" d="M121.74,41.01c0,0,5.75-1.78,10.59,2.77c1.18,1.11-4.73-0.91-5.89-0.12c-0.82,0.56,0.18,1.04,0.4,1.3
				c0.3,0.37-0.28,0.87-0.72,0.68l-5.2-2.31c0,0-16.55,0.03-27.43,6.36c-5.68,3.31-10.65-2.15-4.79-5.44
				C94.12,41.2,101.18,40.15,121.74,41.01z"/>
			<path class="st1" d="M20.91,45.42c0.27-2.61,8.7,1.73,13.07,0.94c4.37-0.79,5.26,0.25,7.96,0.97c2.02,0.54,11.57,5.43,17.66,4.08
				c5.15-1.14,6.13-9.99-2.72-10.67c0,0-12.6-1.63-17.66-0.74s-13.89,0.44-18.91,1.01c-1.49,0.17-4.81-0.42-6.66,0.03
				c-2.98,0.73-3.96-2.06-6.3-0.62c-2.59,1.6,5.12,2.72,6.63,5.18S20.33,51.02,20.91,45.42z"/>
			<path class="st1" d="M41.94,47.8c-2.7-0.72-3.59-1.76-7.96-0.97c-0.07,0.01-0.14,0.02-0.2,0.03c-3.48,2.77-7.5,5.66-9.94,7.93
				c-1.1,1.02-4.12,2.52-5.34,3.97c-1.97,2.36-4.41,0.69-5.44,3.25c-1.13,2.83,5.73-0.85,8.41,0.23s8.33,0.59,5.48-4.26
				c-1.33-2.26,8.03-3.78,11.08-7c1.84-1.95,3.06-2.61,4.3-3.05C42.18,47.87,42.05,47.83,41.94,47.8z"/>
		</g>
	</g>
</g>
</svg>
