<?xml version="1.0" encoding="utf-8"?>
<!-- Generator: Adobe Illustrator 26.1.0, SVG Export Plug-In . SVG Version: 6.00 Build 0)  -->
<svg version="1.1" xmlns="http://www.w3.org/2000/svg" xmlns:xlink="http://www.w3.org/1999/xlink" x="0px" y="0px"
	 viewBox="0 0 500 80" style="enable-background:new 0 0 500 80;" xml:space="preserve">
<style type="text/css">
	.st0{fill:none;stroke:#ECECEC;stroke-width:4;stroke-miterlimit:10;}
	.st1{fill:#F2C5C1;}
	.st2{fill:#5D5C5B;}
	.st3{fill:none;stroke:#CD1719;stroke-miterlimit:10;}
	.st4{fill:#CD1719;}
</style>
<g id="agua">
	<g>
		<g>
			<path class="st0" d="M500,40.26c-22.73,0-22.73-4-45.45-4c-22.73,0-22.73,4-45.45,4c-22.73,0-22.73-4-45.45-4
				c-22.73,0-22.73,4-45.45,4c-22.73,0-22.73-4-45.45-4c-22.73,0-22.73,4-45.45,4c-22.73,0-22.73-4-45.45-4
				c-22.73,0-22.73,4-45.46,4c-22.73,0-22.73-4-45.45-4c-22.73,0-22.73,4-45.46,4c-22.73,0-22.73-4-45.46-4"/>
		</g>
		<g>
			<path class="st0" d="M500,48.45c-22.73,0-22.73-4-45.45-4c-22.73,0-22.73,4-45.45,4c-22.73,0-22.73-4-45.45-4
				c-22.73,0-22.73,4-45.45,4c-22.73,0-22.73-4-45.45-4c-22.73,0-22.73,4-45.45,4c-22.73,0-22.73-4-45.45-4
				c-22.73,0-22.73,4-45.46,4c-22.73,0-22.73-4-45.45-4c-22.73,0-22.73,4-45.46,4c-22.73,0-22.73-4-45.46-4"/>
		</g>
		<g>
			<path class="st0" d="M500,56.64c-22.73,0-22.73-4-45.45-4c-22.73,0-22.73,4-45.45,4c-22.73,0-22.73-4-45.45-4
				c-22.73,0-22.73,4-45.45,4c-22.73,0-22.73-4-45.45-4c-22.73,0-22.73,4-45.45,4c-22.73,0-22.73-4-45.45-4
				c-22.73,0-22.73,4-45.46,4c-22.73,0-22.73-4-45.45-4c-22.73,0-22.73,4-45.46,4c-22.73,0-22.73-4-45.46-4"/>
		</g>
		<g>
			<path class="st0" d="M500,64.83c-22.73,0-22.73-4-45.45-4c-22.73,0-22.73,4-45.45,4c-22.73,0-22.73-4-45.45-4
				c-22.73,0-22.73,4-45.45,4c-22.73,0-22.73-4-45.45-4c-22.73,0-22.73,4-45.45,4c-22.73,0-22.73-4-45.45-4
				c-22.73,0-22.73,4-45.46,4c-22.73,0-22.73-4-45.45-4c-22.73,0-22.73,4-45.46,4s-22.73-4-45.46-4"/>
		</g>
		<g>
			<path class="st0" d="M500,73.02c-22.73,0-22.73-4-45.45-4c-22.73,0-22.73,4-45.45,4c-22.73,0-22.73-4-45.45-4
				c-22.73,0-22.73,4-45.45,4c-22.73,0-22.73-4-45.45-4c-22.73,0-22.73,4-45.45,4c-22.73,0-22.73-4-45.45-4
				c-22.73,0-22.73,4-45.46,4c-22.73,0-22.73-4-45.45-4c-22.73,0-22.73,4-45.46,4c-22.73,0-22.73-4-45.46-4"/>
		</g>
	</g>
</g>
<g id="nadadora-cuatro">
	<g>
		<path class="st1" d="M455.53,33.22c0,0,2.21-2.21,6.8-0.55c4.59,1.66-0.22-6.99-0.22-6.99l-4.81,1.41L455.53,33.22z"/>
		<g>
			<path class="st2" d="M466.77,28.48c5.46,0.63,5.17,5.53,5.17,5.57c0.68-0.37,1.27-0.78,1.66-1.24c2.24-2.62,1.36-7.06-1.39-9.41
				s-7.55-2.07-9.79,0.55c-0.43,0.5-0.66,1.09-0.79,1.72C461.8,26.43,462.66,28,466.77,28.48z"/>
			<path class="st1" d="M471.94,34.05c0-0.04,0.29-4.94-5.17-5.57c-4.11-0.47-4.96-2.05-5.14-2.81c-0.24,1.22-0.07,2.66-0.02,4.22
				c0.06,1.84-0.76,4.12,0.07,5.82c0.61,1.24,3.46-0.05,5.44,1.29c0.69,0.47,0.43-1.18,1.26-1.47
				C469.62,35.09,470.9,34.61,471.94,34.05z"/>
		</g>
		<path class="st2" d="M423.59,41.24c-1.15-1.77-1.15-5,2.41-8.09s15.21-0.85,18.85-4.01s10.03-7.7,12.18-5.23s6.23,7.61,0.93,12.22
			c-8.79,7.65-14.74-0.22-20.92,5.15S425.43,44.05,423.59,41.24z"/>
		<path class="st1" d="M489.68,23.22c0,0,5.93-1.09,10.19,4.01c1.04,1.24-4.6-1.46-5.84-0.82c-0.88,0.46,0.06,1.05,0.24,1.34
			c0.26,0.4-0.39,0.84-0.8,0.59l-4.89-2.91c0,0-20.76-2.96-31.4,3.62c-5.6,3.46-8.01-2.78-1.79-5.36
			C461.15,21.3,469.34,19.93,489.68,23.22z"/>
		<path class="st1" d="M390.59,36.17c-0.5,2.58,3.59,2.37,8.15,3.51c4.31,1.08,9.24,6.05,11.7,4.73
			c1.84-0.98,10.6-10.86,16.84-10.95c5.28-0.07,8.75,9.92,0.28,12.62c0,0-11.99,6.19-17.12,6.48c-5.13,0.29-17.07-10.33-21.72-12.35
			c-1.38-0.6-4.73-1-6.36-1.97c-2.64-1.57-4.39,0.82-6.21-1.25c-2.01-2.29,5.69-1.11,7.86-3.02S391.67,30.64,390.59,36.17z"/>
		<g>
			<g>
				<path class="st3" d="M486.87,31.62c-2.07,14.08-14.95,23.91-28.99,22.3"/>
				<g>
					<polygon class="st4" points="460.81,50.86 461.3,51.49 458.19,53.92 460.83,56.85 460.23,57.38 457.02,53.81 					"/>
				</g>
			</g>
		</g>
	</g>
</g>
<g id="nadadora-tres">
	<path class="st1" d="M339.03,39.77c0,0,3.82-2.78,8.14-5.04c4.32-2.27-5.31-4.56-5.31-4.56l-3.41,3.13L339.03,39.77z"/>
	<g>
		<path class="st2" d="M345.75,28.6c3.08-4.55,7.3-2.03,7.33-2.01c-0.01-0.78-0.1-1.48-0.33-2.04c-1.29-3.2-5.63-4.47-8.99-3.12
			s-5.33,5.73-4.04,8.93c0.25,0.61,0.66,1.09,1.16,1.49C341.63,32.05,343.43,32.02,345.75,28.6z"/>
		<path class="st1" d="M353.08,26.59c-0.03-0.02-4.25-2.54-7.33,2.01c-2.32,3.42-4.11,3.45-4.86,3.25c0.97,0.78,2.33,1.3,3.73,1.97
			c1.66,0.8,3.3,2.58,5.2,2.63c1.38,0.04,1.55-3.09,3.66-4.22c0.73-0.39-0.84-0.93-0.72-1.8C352.93,29.13,353.1,27.77,353.08,26.59z
			"/>
	</g>
	<path class="st2" d="M304.01,52.23c-1.1-1.8-0.99-5.03,2.67-8.01c3.66-2.98,15.23-0.36,18.97-3.4c3.73-3.04,13.82-9.91,15.89-7.37
		s2.43,10.35-3.02,14.79c-9.03,7.36-14.72-0.69-21.07,4.48C311.1,57.88,305.76,55.1,304.01,52.23z"/>
	<path class="st1" d="M310.63,37.19c0,0-5.09,3.62-9.83-1.03c-1.16-1.13,3.88-0.62,5.05-1.39c0.83-0.54-1.09-0.84-1.3-1.1
		c-0.3-0.37,0.57-0.89,1-0.68l5.66,1.03c0,0,8.57-10.68,27.13-3.68c9.6,3.62-0.74,8.61-8.62,4.5
		C322.03,30.83,320.03,34.14,310.63,37.19z"/>
	<path class="st1" d="M269.14,48.82c0.12,2.63,10.35-0.68,14.61,0.57c4.26,1.25,4.67,2.44,7.43,2.01
		c2.07-0.32,13.51-7.53,19.43-5.54c5,1.68,5.62,9.41-3.18,10.65c-4.54,0.64-13.19,4.21-18.12,2.79s-15.09-6.29-21.03-6.11
		c-1.5,0.05-4.83,0.14-6.65-0.42c-2.94-0.9-4.08,1.83-6.33,0.25c-2.49-1.75,5.27-2.42,6.93-4.78
		C263.88,45.88,268.89,43.2,269.14,48.82z"/>
	<g>
		<g>
			<path class="st3" d="M320.87,25.27c6.24-12.79,21.49-18.25,34.38-12.47"/>
			<g>
				<polygon class="st4" points="351.53,14.83 351.25,14.08 354.95,12.72 353.32,9.12 354.05,8.79 356.04,13.17 				"/>
			</g>
		</g>
	</g>
</g>
<g id="nadadora-dos">
	<path class="st1" d="M214.97,43.06c0,0,3.82-2.78,8.14-5.04s-5.31-4.56-5.31-4.56l-8.71,6.52L214.97,43.06z"/>
	<g>
		<path class="st2" d="M223.01,31.93c4.15-3.6,7.57-0.08,7.6-0.05c0.19-0.75,0.28-1.46,0.21-2.06c-0.42-3.43-4.29-5.77-7.88-5.33
			c-3.59,0.44-6.63,4.16-6.21,7.59c0.08,0.66,0.35,1.22,0.74,1.74C218.15,34.21,219.89,34.64,223.01,31.93z"/>
		<path class="st1" d="M230.61,31.88c-0.03-0.03-3.45-3.55-7.6,0.05c-3.12,2.71-4.86,2.28-5.54,1.89c0.74,1.01,1.91,1.85,3.1,2.86
			c1.4,1.2,2.52,3.34,4.34,3.88c1.32,0.39,2.3-2.59,4.62-3.14c0.81-0.19-0.58-1.12-0.24-1.92
			C229.82,34.29,230.33,33.02,230.61,31.88z"/>
	</g>
	<path class="st2" d="M176.38,46.15c-0.86-1.93-0.34-5.12,3.66-7.61c4.01-2.49,15.16,1.58,19.25-0.96
		c4.09-2.54,14.42-5.12,16.15-2.34c1.73,2.78,1.65,7.62-4.32,11.33c-9.9,6.15-14.52-2.56-21.47,1.76S177.74,49.22,176.38,46.15z"/>
	<path class="st1" d="M197.87,66.7c0,0-0.86,6.19-7.5,6.44c-1.62,0.06,2.21-3.25,2.46-4.63c0.18-0.98-1.36,0.22-1.7,0.19
		c-0.48-0.04-0.26-1.02,0.19-1.19l4.64-3.41c0,0,6.34-17.39,11.46-25.26c5.6-8.6,13.14-3.77,5.22,4.97
		C206.82,50.22,206.73,53.3,197.87,66.7z"/>
	<path class="st1" d="M141.94,39.63c-0.12,2.63,10.37,0.25,14.5,1.88c4.13,1.63,4.43,2.85,7.22,2.67
		c2.09-0.13,14.13-6.29,19.84-3.78c4.83,2.12,4.76,9.87-4.12,10.32c-4.58,0.23-13.51,3.01-18.3,1.15
		c-4.79-1.86-14.46-7.62-20.4-7.97c-1.5-0.09-4.82-0.29-6.58-1.01c-2.85-1.16-4.22,1.46-6.33-0.32c-2.33-1.97,5.47-1.94,7.33-4.14
		C136.96,36.22,142.19,34,141.94,39.63z"/>
	<g>
		<g>
			<path class="st3" d="M190.8,58.47c-12.79-6.24-18.25-21.49-12.47-34.38"/>
			<g>
				<polygon class="st4" points="180.36,27.81 179.61,28.09 178.24,24.38 174.65,26.02 174.32,25.29 178.69,23.3 				"/>
			</g>
		</g>
	</g>
</g>
<g id="nadadora-uno">
	<path class="st1" d="M75.5,52.88c0,0,2.21-2.21,6.8-0.55c4.59,1.66-0.22-6.99-0.22-6.99l-4.81,1.41L75.5,52.88z"/>
	<g>
		<path class="st2" d="M86.73,48.14c5.46,0.63,5.17,5.53,5.17,5.57c0.68-0.37,1.27-0.78,1.66-1.24c2.24-2.62,1.36-7.06-1.39-9.41
			c-2.75-2.35-7.55-2.07-9.79,0.55c-0.43,0.5-0.66,1.09-0.79,1.72C81.77,46.09,82.62,47.67,86.73,48.14z"/>
		<path class="st1" d="M91.9,53.71c0-0.04,0.29-4.94-5.17-5.57c-4.11-0.47-4.96-2.05-5.14-2.81c-0.24,1.22-0.07,2.66-0.02,4.22
			c0.06,1.84-0.76,4.12,0.07,5.82c0.61,1.24,3.46-0.05,5.44,1.29c0.69,0.47,0.43-1.18,1.26-1.47C89.58,54.75,90.86,54.27,91.9,53.71
			z"/>
	</g>
	<path class="st2" d="M43.28,35.44c0.29-2.09,2.41-4.53,7.13-4.53s12.04,9.34,16.85,9.34s12.62,0.77,12.62,4.04
		s-0.29,9.83-7.32,9.83c-11.65,0-10.98-9.83-19.17-9.83S42.82,38.77,43.28,35.44z"/>
	<path class="st1" d="M111.12,47.56c0,0,6.02,0.01,9.3,5.79c0.8,1.41-4.25-2.27-5.59-1.86c-0.95,0.29-0.14,1.04-0.01,1.36
		c0.18,0.44-0.53,0.75-0.89,0.44l-4.29-3.75c0,0-19.88-6.67-31.53-2.14c-6.13,2.39-4.82-4.53,1.76-5.94
		C85.96,40.16,91.72,40.64,111.12,47.56z"/>
	<path class="st1" d="M9.79,46.58c1.6,2.08,6.57-4.14,11-4.37s7.72,0.59,10.18-0.72c1.84-0.98,10.03-7.94,16.27-8.02
		c5.28-0.07,8.26,8.33-0.21,11.02c0,0-10.84,3.37-15.96,3.66c-5.13,0.29-14.9,0.35-19.48,2.5c-1.36,0.64-3.87,2.89-5.68,3.48
		c-2.92,0.95-2.28,3.84-5.04,3.84c-3.05,0,2.92-5.01,2.92-7.9C3.79,47.19,6.35,42.11,9.79,46.58z"/>
	<g>
		<g>
			<path class="st3" d="M104.17,55.6C97.93,68.4,82.69,73.86,69.79,68.08"/>
			<g>
				<polygon class="st4" points="73.51,66.05 73.79,66.8 70.09,68.16 71.72,71.75 70.99,72.08 69.01,67.71 				"/>
			</g>
		</g>
	</g>
</g>
</svg>
