<?xml version="1.0" encoding="utf-8"?>
<!-- Generator: Adobe Illustrator 26.1.0, SVG Export Plug-In . SVG Version: 6.00 Build 0)  -->
<svg version="1.1" xmlns="http://www.w3.org/2000/svg" xmlns:xlink="http://www.w3.org/1999/xlink" x="0px" y="0px"
	 viewBox="0 0 500 75" style="enable-background:new 0 0 500 75;" xml:space="preserve">
<style type="text/css">
	.st0{fill:none;stroke:#ECECEC;stroke-width:4;stroke-miterlimit:10;}
	.st1{fill:#F2C5C1;}
	.st2{fill:#5D5C5B;}
	.st3{fill:none;stroke:#CD1719;stroke-miterlimit:10;}
	.st4{fill:#CD1719;}
</style>
<g id="agua">
	<g>
		<g>
			<path class="st0" d="M500,30.26c-22.73,0-22.73-4-45.45-4c-22.73,0-22.73,4-45.45,4c-22.73,0-22.73-4-45.45-4
				c-22.73,0-22.73,4-45.45,4c-22.73,0-22.73-4-45.45-4c-22.73,0-22.73,4-45.45,4c-22.73,0-22.73-4-45.45-4
				c-22.73,0-22.73,4-45.46,4c-22.73,0-22.73-4-45.45-4c-22.73,0-22.73,4-45.46,4s-22.73-4-45.46-4"/>
		</g>
		<g>
			<path class="st0" d="M500,38.45c-22.73,0-22.73-4-45.45-4c-22.73,0-22.73,4-45.45,4c-22.73,0-22.73-4-45.45-4
				c-22.73,0-22.73,4-45.45,4c-22.73,0-22.73-4-45.45-4c-22.73,0-22.73,4-45.45,4c-22.73,0-22.73-4-45.45-4
				c-22.73,0-22.73,4-45.46,4c-22.73,0-22.73-4-45.45-4c-22.73,0-22.73,4-45.46,4c-22.73,0-22.73-4-45.46-4"/>
		</g>
		<g>
			<path class="st0" d="M500,46.64c-22.73,0-22.73-4-45.45-4c-22.73,0-22.73,4-45.45,4c-22.73,0-22.73-4-45.45-4
				c-22.73,0-22.73,4-45.45,4c-22.73,0-22.73-4-45.45-4c-22.73,0-22.73,4-45.45,4c-22.73,0-22.73-4-45.45-4
				c-22.73,0-22.73,4-45.46,4c-22.73,0-22.73-4-45.45-4c-22.73,0-22.73,4-45.46,4c-22.73,0-22.73-4-45.46-4"/>
		</g>
		<g>
			<path class="st0" d="M500,54.83c-22.73,0-22.73-4-45.45-4c-22.73,0-22.73,4-45.45,4c-22.73,0-22.73-4-45.45-4
				c-22.73,0-22.73,4-45.45,4c-22.73,0-22.73-4-45.45-4c-22.73,0-22.73,4-45.45,4c-22.73,0-22.73-4-45.45-4
				c-22.73,0-22.73,4-45.46,4c-22.73,0-22.73-4-45.45-4c-22.73,0-22.73,4-45.46,4c-22.73,0-22.73-4-45.46-4"/>
		</g>
		<g>
			<path class="st0" d="M500,63.02c-22.73,0-22.73-4-45.45-4c-22.73,0-22.73,4-45.45,4c-22.73,0-22.73-4-45.45-4
				c-22.73,0-22.73,4-45.45,4c-22.73,0-22.73-4-45.45-4c-22.73,0-22.73,4-45.45,4c-22.73,0-22.73-4-45.45-4
				c-22.73,0-22.73,4-45.46,4c-22.73,0-22.73-4-45.45-4c-22.73,0-22.73,4-45.46,4c-22.73,0-22.73-4-45.46-4"/>
		</g>
	</g>
</g>
<g id="nadadora-cuatro">
	<g>
		<g>
			<path class="st1" d="M476.83,33.55c0,0-0.34-3.11,3.83-5.65c4.17-2.54-5.59-4.21-5.59-4.21l-1.92,4.63L476.83,33.55z"/>
			<g>
				<path class="st2" d="M480.17,21.82c3.91-3.86,7.56-0.57,7.58-0.54c0.14-0.77,0.19-1.47,0.08-2.07
					c-0.64-3.39-4.65-5.48-8.21-4.81s-6.35,4.58-5.71,7.98c0.12,0.65,0.43,1.2,0.85,1.69C475.46,24.41,477.23,24.72,480.17,21.82z"
					/>
				<path class="st1" d="M487.75,21.28c-0.03-0.02-3.67-3.32-7.58,0.54c-2.94,2.91-4.71,2.59-5.41,2.25
					c0.8,0.96,2.03,1.72,3.27,2.66c1.48,1.11,2.73,3.17,4.59,3.59c1.35,0.3,2.13-2.73,4.41-3.43c0.8-0.24-0.65-1.08-0.36-1.9
					C487.11,23.74,487.54,22.44,487.75,21.28z"/>
			</g>
			<path class="st2" d="M440.95,40.56c-1.08-1.82-0.94-5.04,2.76-7.98c3.69-2.94,15.24-0.19,19.01-3.19s10.35-7.26,12.39-4.69
				s5.9,7.88,0.4,12.26c-9.12,7.26-14.72-0.86-21.12,4.24C447.98,46.29,442.66,43.45,440.95,40.56z"/>
			<path class="st1" d="M407.96,37.04c-0.27,2.61,7.48,1.8,11.92,1.57s9.07,4.81,11.54,3.5c1.85-0.98,7.66-8.82,13.9-8.91
				c5.28-0.07,8.26,8.33-0.21,11.03c0,0-12.46,4.34-17.59,4.63c-5.13,0.29-16.26-6.02-21.06-7.62c-1.42-0.47-4.8-0.57-6.52-1.4
				c-2.77-1.33-4.3,1.21-6.3-0.69c-2.21-2.1,5.57-1.61,7.56-3.71C403.19,33.34,408.54,31.43,407.96,37.04z"/>
			<g>
				<path class="st1" d="M408.53,37.66c1.15,1.2,6.29,0.88,9.69,0.67c0.49-0.03,0.95-0.06,1.39-0.08c-3.1-2.82-9.47-2.86-11.59-3.86
					c0.29,0.6,0.44,1.46,0.31,2.69C408.3,37.31,408.37,37.49,408.53,37.66z"/>
				<path class="st1" d="M399.01,35.13c0.33,0.21,0.73,0.41,1.17,0.58c0.3-0.16,0.56-0.33,0.75-0.53c1.27-1.33,4.11-2.8,5.94-1.95
					c0.15,0.07,0.3,0.17,0.45,0.29c0-0.03,0-0.06,0.01-0.09c1.33-5.48-4.23-4.3-6.48-2.49c-2.25,1.81-9.9,0.28-7.99,2.66
					C394.58,35.75,396.44,33.44,399.01,35.13z"/>
			</g>
			<path class="st1" d="M482.3,60.69c0,0,3.27,5.06,0.2,10.95c-0.75,1.44-0.41-4.81-1.48-5.71c-0.76-0.64-0.95,0.45-1.14,0.73
				c-0.27,0.39-0.92-0.04-0.85-0.51l0.81-5.64c0,0-8.25-12.51-10.28-27.76c-0.87-6.53,6.44-5.76,6.39-2.43
				C475.66,48.16,482.63,50.78,482.3,60.69z"/>
			<path class="st1" d="M489.22,50.19c-2.77-7.5-6.89-6.64-11.76-14.72c-0.26,0.35-0.56,0.71-0.91,1.05
				c0.23,2.44,0.62,4.52,1.1,6.35c5.04,5.53,9.24,8.09,9.24,8.09l1.37,5.53c0.11,0.46,0.88,0.62,0.98,0.15
				c0.07-0.33-0.16-1.41,0.78-1.11c1.33,0.43,3.37,6.34,3.53,4.73C494.16,53.64,489.22,50.19,489.22,50.19z"/>
		</g>
		<g>
			<g>
				<path class="st3" d="M473.77,55.42c-13.43,4.62-28.05-2.28-33.07-15.46"/>
				<g>
					<polygon class="st4" points="444.77,41.16 444.44,41.88 440.86,40.23 439.47,43.93 438.72,43.65 440.41,39.15 					"/>
				</g>
			</g>
		</g>
	</g>
</g>
<g id="nadadora-tres">
	<path class="st1" d="M334.14,28.32c-1.75,0.65-3.01,0.8-3.91,0.71c-0.84-0.65-1.5-1.1-1.5-1.1l-0.34,0.32
		c-0.03-0.03-0.06-0.07-0.09-0.1c0.01,0.05,0.03,0.1,0.05,0.14l-2.26,2.13c1.01-0.07,2.06-0.16,3.12-0.25c0,0,0,0,0,0
		c0.51-0.05,1.03-0.09,1.55-0.14c3.07-0.28,6.23-0.55,9.47-0.6C339.14,28.31,337.21,27.18,334.14,28.32z"/>
	<path class="st2" d="M289.63,36.69c-0.69-2,0.1-5.13,4.3-7.27c4.21-2.14,14.97,2.87,19.26,0.69c4.29-2.18,11.6-5.03,13.08-2.11
		s4.2,8.9-2.07,12.09c-10.39,5.28-14.25-3.79-21.55-0.08C295.37,43.71,290.73,39.86,289.63,36.69z"/>
	<path class="st1" d="M357.98,29.46c0,0,5.44-2.6,10.89,1.2c1.33,0.93-4.82-0.21-5.85,0.74c-0.73,0.67,0.33,1,0.58,1.23
		c0.36,0.32-0.15,0.91-0.61,0.78l-5.49-1.53c0,0-12.61,3.4-20.86,3.28c-4.98-0.07-9.61,1.6-13.32,1.77
		c-6.58,0.3-7.91-5.98-1.22-5.98c5.66,0,12.32-1.16,19.17-1.16C346.86,29.78,352.65,29.78,357.98,29.46z"/>
	<path class="st2" d="M334.14,28.32c3.07-1.14,5,0,6.07,1.11c0.36-0.01,0.71-0.02,1.06-0.02c0.27,0,0.55,0,0.82,0
		c0.04-0.11,0.08-0.21,0.1-0.32c0.81-3.36-1.99-6.91-5.51-7.76c-3.52-0.85-7.67,1.57-8.48,4.93c-0.16,0.64-0.1,1.27,0.08,1.89
		C328.78,28.74,330.26,29.76,334.14,28.32z"/>
	<path class="st1" d="M336.63,35.53c-1.61-0.02-3.2,0.14-4.74,0.38c0.27,0.45,0.58,0.85,0.99,1.16c1.1,0.83,3.06-1.62,5.43-1.31
		c0.26,0.03,0.33-0.08,0.34-0.27C337.96,35.52,337.28,35.54,336.63,35.53z"/>
	<path class="st1" d="M258.67,36.66c0.46,2.59,7.44,0.05,11.87,0.28c4.44,0.23,5.93,1.25,8.52,0.2c1.94-0.79,10.79-6.86,17.01-6.3
		c5.26,0.47,7.36,9.14-1.35,10.95c0,0-11.13,2.24-16.26,1.99c-5.13-0.24-15.02-2.47-20.08-2.67c-1.5-0.06-4.77,0.78-6.65,0.47
		c-3.03-0.5-3.8,2.36-6.25,1.08c-2.7-1.41,4.91-3.1,6.24-5.66C253.07,34.43,257.68,31.11,258.67,36.66z"/>
	<path class="st1" d="M251.57,36.44c0.01,0.01,0.03,0.01,0.04,0.02c0.98-1.58,3.11-3.45,4.96-3.16c0.88,0.13,2.02,0.81,2.47,3.29
		c0.23,1.29,3.18,0.86,6.03,0.44c1.89-0.27,3.84-0.56,5.5-0.47c1.6,0.08,2.84,0.27,3.84,0.42c0.32,0.05,0.61,0.09,0.9,0.13
		c-8.88-4.72-15.95-0.85-15.63-3.25c0.74-5.59-4.66-3.82-6.71-1.78c-2.05,2.04-9.81,1.34-7.66,3.5
		C247.24,37.53,248.84,35.04,251.57,36.44z"/>
	<g>
		<g>
			<line class="st3" x1="319.13" y1="52.3" x2="361.45" y2="52.3"/>
			<g>
				<polygon class="st4" points="358.79,55.57 358.25,54.99 361.14,52.3 358.25,49.62 358.79,49.03 362.31,52.3 				"/>
			</g>
		</g>
	</g>
</g>
<g id="nadadora-dos">
	<path class="st1" d="M195.07,26.47c-1.75,0.65-3.01,0.8-3.91,0.71c-0.84-0.65-1.5-1.1-1.5-1.1l-0.34,0.32
		c-0.03-0.03-0.06-0.07-0.09-0.1c0.01,0.05,0.03,0.1,0.05,0.14l-2.26,2.13c1.01-0.07,2.06-0.16,3.12-0.25c0,0,0,0,0,0
		c0.51-0.05,1.03-0.09,1.55-0.14c3.07-0.28,6.23-0.55,9.47-0.6C200.08,26.46,198.14,25.33,195.07,26.47z"/>
	<path class="st2" d="M150.57,34.84c-0.69-2,0.1-5.13,4.3-7.27c4.21-2.14,14.97,2.87,19.26,0.69s11.6-5.03,13.08-2.11
		c1.48,2.92,4.2,8.9-2.07,12.09c-10.39,5.28-14.25-3.79-21.55-0.08C156.3,41.86,151.67,38.01,150.57,34.84z"/>
	<path class="st1" d="M218.92,27.61c0,0,5.44-2.6,10.89,1.2c1.33,0.93-4.82-0.21-5.85,0.74c-0.73,0.67,0.33,1,0.58,1.23
		c0.36,0.32-0.15,0.91-0.61,0.78l-5.49-1.53c0,0-12.61,3.4-20.86,3.28c-4.98-0.07-9.61,1.6-13.32,1.77
		c-6.58,0.3-7.91-5.98-1.22-5.98c5.66,0,12.32-1.16,19.17-1.16C207.8,27.93,213.59,27.93,218.92,27.61z"/>
	<path class="st2" d="M195.07,26.47c3.07-1.14,5,0,6.07,1.11c0.36-0.01,0.71-0.02,1.06-0.02c0.27,0,0.55,0,0.82,0
		c0.04-0.11,0.08-0.21,0.1-0.32c0.81-3.36-1.99-6.91-5.51-7.76c-3.52-0.85-7.67,1.57-8.48,4.93c-0.16,0.64-0.1,1.27,0.08,1.89
		C189.72,26.89,191.2,27.91,195.07,26.47z"/>
	<path class="st1" d="M197.57,33.68c-1.61-0.02-3.2,0.14-4.74,0.38c0.27,0.45,0.58,0.85,0.99,1.16c1.1,0.83,3.06-1.62,5.43-1.31
		c0.26,0.03,0.33-0.08,0.34-0.27C198.9,33.67,198.22,33.69,197.57,33.68z"/>
	<path class="st1" d="M122.64,41.9c0.55,2.57,7,1.1,9.1,2.53c3.28,2.25,5.62,5.97,7.22,3.68c1.2-1.71,8.73-13.93,14.26-16.83
		c4.67-2.46,11.14,3.68,4.81,9.93c0,0-13.7,12.73-18.15,15.31c-4.44,2.58-14-9.22-17.38-10.16c-1.45-0.4-4.09,0.11-6.63,0.68
		c-3,0.68-3.72,2.48-6.21,1.29c-2.75-1.32,4.8-3.26,6.05-5.86C116.96,39.86,121.46,36.39,122.64,41.9z"/>
	<path class="st1" d="M125.01,36.77c2.46,1.24,3.67,0.54,6.23-1.16c3.59-2.38,7.17,5.24,9.38,9.32c1.08-1.61,2.47-3.61,4.01-5.63
		c-0.59-1.5-1.43-2.82-2.4-3.51c-2.07-1.48-4.36-2.12-4.86-4.7c-1.06-5.53-4.9-2.63-6.2-0.05
		C129.88,33.61,122.29,35.39,125.01,36.77z"/>
	<g>
		<g>
			<path class="st3" d="M169.76,19.45C175.99,6.68,191.2,1.23,204.07,7"/>
			<g>
				<polygon class="st4" points="200.35,9.03 200.07,8.28 203.78,6.91 202.14,3.32 202.87,2.99 204.86,7.36 				"/>
			</g>
		</g>
	</g>
</g>
<g id="nadadora-uno">
	<path class="st1" d="M79.11,27.44c0,0-1.11-2.92,2.28-6.44s-6.47-2.66-6.47-2.66l-0.68,4.97L79.11,27.44z"/>
	<g>
		<path class="st2" d="M79.37,15.25c2.81-4.73,7.17-2.46,7.2-2.44c-0.06-0.78-0.19-1.47-0.45-2.02c-1.48-3.12-5.89-4.13-9.16-2.58
			s-4.98,6.04-3.5,9.16c0.28,0.6,0.72,1.05,1.25,1.42C75.47,18.94,77.26,18.8,79.37,15.25z"/>
		<path class="st1" d="M86.57,12.81c-0.03-0.02-4.39-2.28-7.2,2.44c-2.11,3.56-3.9,3.69-4.66,3.54c1.02,0.72,2.4,1.15,3.84,1.74
			c1.71,0.7,3.45,2.38,5.35,2.32c1.38-0.05,1.37-3.18,3.4-4.44c0.71-0.44-0.9-0.88-0.83-1.75C86.57,15.35,86.66,13.99,86.57,12.81z"
			/>
	</g>
	<path class="st2" d="M44.29,38.31c-1.17-1.76-1.2-4.98,2.33-8.12c3.53-3.13,15.21-1,18.81-4.2c3.6-3.2,9.95-7.8,12.12-5.35
		c2.17,2.45,6.31,7.55,1.05,12.22c-8.72,7.74-14.74-0.07-20.87,5.36S46.16,41.11,44.29,38.31z"/>
	<path class="st1" d="M91.39,24.74c0,0,6.99-1.44,7.46,1.23c0.13,0.74-3.33-1.11-4.75,0.49c-0.66,0.74,1.16,0.66,1.29,0.97
		c0.18,0.44-1.66,1.15-2.02,0.83l-2.36,0.29c-2.53,0-16.76,21.56-18.65,0c-0.58-6.56,6.39-4.7,6.22-2.45
		C77.53,40.22,80.8,29.84,91.39,24.74z"/>
	<path class="st1" d="M14.71,32.25c-0.27,2.61,4.18,2.24,8.62,2.01c4.44-0.23,8.81,6.65,11.28,5.33c1.85-0.98,7.66-8.82,13.9-8.91
		c5.28-0.07,8.26,8.33-0.21,11.03c0,0-10.61,4.33-15.74,4.62c-5.13,0.29-14.54-8.29-19.35-9.89c-1.42-0.47-4.8-0.57-6.52-1.4
		c-2.77-1.33-4.3,1.21-6.3-0.69c-2.21-2.1,5.57-1.61,7.56-3.71S15.3,26.64,14.71,32.25z"/>
	<g>
		<g>
			<path class="st3" d="M92.92,37.56C86.69,50.32,71.47,55.77,58.6,50"/>
			<g>
				<polygon class="st4" points="62.32,47.97 62.6,48.72 58.9,50.09 60.53,53.68 59.8,54.01 57.82,49.64 				"/>
			</g>
		</g>
	</g>
</g>
</svg>
